<?xml version="1.0" encoding="utf-8"?>
<!-- Generator: Adobe Illustrator 21.0.0, SVG Export Plug-In . SVG Version: 6.00 Build 0)  -->
<svg version="1.1" id="tuceng1" xmlns="http://www.w3.org/2000/svg" xmlns:xlink="http://www.w3.org/1999/xlink" x="0px" y="0px"
	 viewBox="0 0 490.2 100" style="enable-background:new 0 0 490.2 100;" xml:space="preserve">
<style type="text/css">
	.st0{fill:#FFFFFF;}
	.st1{fill:#FFD751;}
	.st2{fill:#6EC7FF;}
</style>
<title>logo_1</title>
<g id="tuceng1-2">
	<path class="st0" d="M385.6,60.6c-0.3-0.7-0.7-1.3-1.2-1.8c-1.1-1.1-2.6-1.8-4.2-1.8h-25.8c-1.2,0-2.1,1-2.1,2.2V65
		c0,1.2,1,2.2,2.1,2.2h20v8.1h-23.5c-2.6,0-4.6-2.1-4.6-4.6V54c0-2.6,2.1-4.6,4.6-4.6h31.9c1.6,0,2.9-1.3,2.9-2.9v-5.9
		c0-1.6-1.3-2.9-2.9-2.9h-34.7c-1.4,0-2.9,0.2-4.3,0.6c-1.2,0.4-2.3,0.9-3.4,1.6c-1,0.7-1.8,1.5-2.5,2.4c-0.7,0.9-1.2,1.8-1.7,2.8
		c-0.4,0.9-0.7,1.9-0.9,2.9c-0.2,0.9-0.3,1.8-0.3,2.8v21.9c0,1.5,0.2,2.9,0.6,4.3c0.4,1.2,0.9,2.4,1.6,3.4c0.7,1,1.5,1.8,2.4,2.5
		c0.9,0.7,1.8,1.2,2.8,1.7c0.9,0.4,1.9,0.7,2.9,0.9c0.9,0.2,1.8,0.3,2.8,0.3h32c0.8,0,1.6-0.1,2.3-0.4c1.4-0.6,2.5-1.7,3.1-3.1
		c0.3-0.7,0.5-1.5,0.5-2.3V62.8C386.1,62.1,385.9,61.3,385.6,60.6z"/>
	<path class="st0" d="M409.8,75.3V37.7h-12.2V80c0,0.8,0.1,1.6,0.5,2.3c0.6,1.4,1.7,2.5,3.1,3.1c0.7,0.3,1.5,0.5,2.3,0.4h34v-2.1
		c0-4.7-3.8-8.4-8.5-8.4l0,0L409.8,75.3z"/>
	<path class="st0" d="M450.2,37.7c-0.8,0-1.6,0.2-2.3,0.5c-0.7,0.3-1.3,0.7-1.9,1.3c-1.1,1.1-1.7,2.6-1.7,4.1v29.2
		c-0.1,2.1,0.4,4.2,1.3,6.1c1.6,3.1,4.3,5.3,7.6,6.3c1.4,0.4,2.8,0.6,4.2,0.7h29.7c1.7,0,3-1.4,3-3.1v-4.7c0-1.7-1.4-3-3-3.1h-29.6
		c-0.4,0-0.9-0.1-1.2-0.3c-0.3-0.3-0.4-0.8-0.3-1.2V48.5h31.1c1.7,0,3-1.4,3-3v-4.7c0-1.7-1.4-3-3-3H450.2z"/>
	<rect x="459.8" y="57.8" class="st0" width="27.7" height="7.9"/>
	<path class="st0" d="M300.2,48.2c0.4,0,0.8,0.2,1.1,0.4l14,12.2c0.7,0.6,0.8,1.7,0.2,2.5c-0.1,0.1-0.1,0.1-0.2,0.2l-14,12.2
		c-0.7,0.6-1.6,0.6-2.3,0l-14-12.2c-0.7-0.6-0.8-1.7-0.2-2.5c0.1-0.1,0.1-0.1,0.2-0.2l14-12.2C299.4,48.4,299.8,48.2,300.2,48.2
		 M300.2,37.5c-3,0-5.9,1.1-8.2,3.1l-14,12.2c-5.2,4.5-5.7,12.4-1.2,17.6c0.4,0.4,0.8,0.8,1.2,1.2l14,12.2c4.7,4.1,11.7,4.1,16.4,0
		l14-12.2c5.2-4.5,5.7-12.4,1.2-17.6c-0.4-0.4-0.8-0.8-1.2-1.2l-14-12.2C306.1,38.5,303.2,37.5,300.2,37.5L300.2,37.5z"/>
	<path class="st0" d="M234.3,38.7l-21.2,18.5c-2.6,2.3-2.9,6.3-0.6,9c0.2,0.2,0.4,0.4,0.6,0.6l21.2,18.5c2.4,2.1,6,2.1,8.4,0
		l21.2-18.5c2.6-2.3,2.9-6.3,0.6-9c-0.2-0.2-0.4-0.4-0.6-0.6l-21.2-18.5C240.2,36.6,236.7,36.6,234.3,38.7z"/>
	<path class="st1" d="M110.5,87.8l-6.7-11c8.4-7.1,9.5-19.7,2.4-28.1s-19.7-9.5-28.1-2.4S68.6,66,75.7,74.4c5.1,6,13.2,8.5,20.8,6.3
		l7,11.4c1.3,1.9,3.8,2.4,5.7,1.2C111,92.1,111.6,89.7,110.5,87.8L110.5,87.8z M89.5,72.4c-6.1-0.8-10.4-6.4-9.5-12.5
		c0.8-6.1,6.4-10.4,12.5-9.5c6.1,0.8,10.3,6.4,9.6,12.4C101.2,68.9,95.7,73.2,89.5,72.4C89.5,72.4,89.5,72.4,89.5,72.4L89.5,72.4z"
		/>
	<path class="st2" d="M41.1,2.2L2.4,21.1c-2,0.9-2.9,3.4-2,5.4c0.4,0.9,1.1,1.6,2,2l38.7,18.9c6,2.9,13.1,2.9,19.1,0l38.7-18.9
		c2-0.9,2.9-3.4,2-5.4c-0.4-0.9-1.1-1.6-2-2L60.2,2.2C54.2-0.7,47.1-0.7,41.1,2.2z"/>
	<path class="st2" d="M70.8,78.8l-12.4,6.2c-4.7,2.3-10.2,2.3-14.8,0L8.7,67.7c-3-1.4-6.5-0.2-8,2.7l0,0c-1.4,3-0.2,6.5,2.7,8
		l40.2,19.9c4.7,2.3,10.2,2.3,14.8,0l23.8-11.8C77.8,84.9,73.9,82.3,70.8,78.8z"/>
	<path class="st2" d="M64.2,58.7l-5.8,2.9c-4.7,2.3-10.2,2.3-14.8,0L8.7,44.3c-3.1-1.2-6.6,0.2-7.8,3.3c-1.1,2.8,0,5.9,2.5,7.4
		l40.2,19.9c4.7,2.3,10.2,2.3,14.8,0l7.7-3.8C64.5,67.2,63.8,62.9,64.2,58.7z"/>
	<path class="st0" d="M197.4,77.3l-0.1-0.2c-0.1-0.1-0.1-0.2-0.2-0.4l-19.5-28.1l-0.8-1.2c-1.1-1.7-3-2.7-5.1-2.7h-0.4
		c-2,0-3.9,1-5,2.6l-12,17.3l-0.1,0.2L146,76.7c0,0-0.3,0.4-0.4,0.6l-0.1,0.1c-1.6,3.1-0.4,6.9,2.7,8.5c2.9,1.5,6.5,0.5,8.2-2.2
		l15-22.5l15.1,22.5l0,0c1.9,2.9,5.8,3.7,8.8,1.8c2.7-1.8,3.6-5.2,2.2-8.1L197.4,77.3z"/>
	<path class="st0" d="M153.1,58.6l-3.7-19.4c-0.2-1-1-1.7-2-1.7H139c-1.1,0-2,0.9-2,2c0,0.1,0,0.3,0,0.4l6.6,32.6L153.1,58.6z"/>
	<path class="st0" d="M204,37.5h-8.3c-1,0-1.8,0.7-2,1.7l-3.8,19.4l9.6,13.9l6.5-32.5c0.2-1.1-0.5-2.1-1.6-2.3
		C204.3,37.5,204.1,37.5,204,37.5z"/>
</g>
</svg>
